<svg xmlns="http://www.w3.org/2000/svg" x="0px" y="0px" width="50" height="50" viewBox="0 0 172 172" style=" fill:#000000;">
    <g fill="none" fill-rule="nonzero" stroke="none" stroke-width="1" stroke-linecap="butt" stroke-linejoin="miter" stroke-miterlimit="10" stroke-dasharray="" stroke-dashoffset="0" font-family="none" font-weight="none" font-size="none" text-anchor="none" style="mix-blend-mode: normal">
        <path d="M0,172v-172h172v172z" fill="none"></path>
        <g fill="#000000">
            <path d="M160.16984,27.52c8.39016,-13.76 -1.92984,-27.52 -15.68984,-27.52c-21.35552,0 -54.5412,31.6824 -82.56,65.36c-23.45736,28.208 -30.96,55.04 -30.96,55.04c-5.848,-3.44 -10.39224,-3.40216 -10.39224,-3.40216c0,0 6.95224,6.84216 6.95224,13.72216c-4.57176,-0.30616 -7.568,-1.35192 -10.32,-3.44c0,0 0,6.88 6.76648,8.80984c-6.7768,0 -10.20648,4.95016 -10.20648,4.95016c4.87448,0 13.88728,0 16.73216,0c0,0 -18.69296,30.96 -16.5636,30.96c2.12936,0 5.22192,-1.6684 6.2436,-2.79672c0.74992,-0.8256 62.38784,-114.16328 117.42784,-152.00328c-2.80704,2.3736 -44.72,41.28 -98.03312,127.24216c2.86208,0 9.10568,1.10424 12.03312,3.47784c0,-3.44 -3.44,-6.88 -3.44,-6.88c17.2,0 27.52,-3.44 34.4,-10.32c0,0 -7.23088,0.0344 -13.90104,0.0344c7.7228,-0.516 20.78104,-6.9144 24.22104,-13.7944h-13.76c20.64,-6.88 30.96,-17.2 41.28,-30.96h-10.32c10.32,-3.44 17.2,-6.88 20.64,-13.76h-6.88c6.88,-3.44 13.76,-6.88 17.2,-17.2c-5.03616,1.3932 -10.32,2.1328 -15.20824,2.1328c15.20824,-5.5728 23.564,-11.98152 34.33808,-29.6528z">
            </path>
        </g>
    </g>
</svg>